<svg viewBox="0 0 32 32" xmlns="http://www.w3.org/2000/svg"><defs><style>.cls-1{fill:#101820}</style></defs><g data-name="Layer 34" id="Layer_34"><path class="cls-1" d="M18 29a1 1 0 01-.57-.18l-10-7A1 1 0 017 21V11a1 1 0 01.43-.82l10-7a1 1 0 011-.07A1 1 0 0119 4v24a1 1 0 01-.54.89A1 1 0 0118 29zm-9-8.52l8 5.6V5.92l-8 5.6z"/><path class="cls-1" d="M8 22H4a3 3 0 01-3-3v-6a3 3 0 013-3h4a1 1 0 011 1v10a1 1 0 01-1 1zM4 12a1 1 0 00-1 1v6a1 1 0 001 1h3v-8zM18 21v-2a3 3 0 002.12-5.12l1.42-1.42A5 5 0 0118 21zM26.48 25.48a1 1 0 01-.71-.29 1 1 0 010-1.42 11 11 0 000-15.54 1 1 0 111.42-1.42 13 13 0 010 18.38 1 1 0 01-.71.29z"/><path class="cls-1" d="M23.65 22.65a1 1 0 01-.7-.29A1 1 0 0123 21a7 7 0 000-9.9 1 1 0 011.41-1.41 9 9 0 010 12.72 1 1 0 01-.76.24z"/></g></svg>